<svg preserveAspectRatio="xMinYMin meet" viewBox="0 0 800 390" id="svgObject" xmlns="http://www.w3.org/2000/svg" xmlns:xlink="http://www.w3.org/1999/xlink"><g id="graphic" transform="translate(0,0)"><g id="legend"  transform="translate(450,25)"><rect x="0" y="6" width="10" height="6" style="fill: rgb(224,0,0);"/><text x="15" y="11" style="stroke: black; font-size: 6pt;">>= 8</text>
<rect x="0" y="12" width="10" height="6" style="fill: rgb(219,0,0);"/><rect x="0" y="18" width="10" height="6" style="fill: rgb(213,0,0);"/><text x="15" y="23" style="stroke: black; font-family: arial; font-size: 6pt;">6</text>
<rect x="0" y="24" width="10" height="6" style="fill: rgb(204,0,0);"/><rect x="0" y="30" width="10" height="6" style="fill: rgb(192,0,0);"/><text x="15" y="35" style="stroke: black; font-family: arial; font-size: 6pt;">4</text>
<rect x="0" y="36" width="10" height="6" style="fill: rgb(170,0,0);"/><rect x="0" y="42" width="10" height="6" style="fill: rgb(128,0,0);"/><text x="15" y="47" style="stroke: black; font-family: arial; font-size: 6pt;">2</text>
<rect x="0" y="48" width="10" height="6" style="fill: rgb(0,0,0);"/><text x="-20" y="53" style="stroke: black; font-family: arial; font-size: 6pt;">Key</text>
<rect x="0" y="54" width="10" height="6" style="fill: rgb(0,128,0);"/><text x="15" y="59" style="stroke: black; font-family: arial; font-size: 6pt;">-2</text>
<rect x="0" y="60" width="10" height="6" style="fill: rgb(0,170,0);"/><rect x="0" y="66" width="10" height="6" style="fill: rgb(0,192,0);"/><text x="15" y="71" style="stroke: black; font-family: arial; font-size: 6pt;">-4</text>
<rect x="0" y="72" width="10" height="6" style="fill: rgb(0,204,0);"/><rect x="0" y="78" width="10" height="6" style="fill: rgb(0,213,0);"/><text x="15" y="83" style="stroke: black; font-family: arial; font-size: 6pt;">-6</text>
<rect x="0" y="84" width="10" height="6" style="fill: rgb(0,219,0);"/><rect x="0" y="90" width="10" height="6" style="fill: rgb(0,224,0);"/><text x="15" y="95" style="stroke: black; font-family: arial; font-size: 6pt;">&lt;= -8</text>
<rect x="-25" y="0" width="80" height="100" style="fill: none; stroke: red;"/></g><g id="heatmap"  cursor="crosshair" transform="translate(100,150)"><a xlink:href="./agilentfeatureinfo.php?featurenum=34474_518" target="_blank" alt=""><rect x="0" y="10" width="20" height="10" style="fill: rgb(0,56,0 );" />
</a><a xlink:href="./agilentfeatureinfo.php?featurenum=34474_519" target="_blank" alt=""><rect x="20" y="10" width="20" height="10" style="fill: rgb(35,0,0 );" />
</a><a xlink:href="./agilentfeatureinfo.php?featurenum=34474_538" target="_blank" alt=""><rect x="40" y="10" width="20" height="10" style="fill: rgb(24,0,0 );" />
</a><rect x="60" y="10" width="5" height="10" style="fill: white;"/>
<a xlink:href="./agilentfeatureinfo.php?featurenum=34474_520" target="_blank" alt=""><rect x="65" y="10" width="20" height="10" style="fill: rgb(134,0,0 );" />
</a><a xlink:href="./agilentfeatureinfo.php?featurenum=34474_521" target="_blank" alt=""><rect x="85" y="10" width="20" height="10" style="fill: rgb(87,0,0 );" />
</a><a xlink:href="./agilentfeatureinfo.php?featurenum=34474_540" target="_blank" alt=""><rect x="105" y="10" width="20" height="10" style="fill: rgb(156,0,0 );" />
</a><rect x="125" y="10" width="5" height="10" style="fill: white;"/>
<a xlink:href="./agilentfeatureinfo.php?featurenum=34474_530" target="_blank" alt=""><rect x="130" y="10" width="20" height="10" style="fill: rgb(170,0,0 );" />
</a><a xlink:href="./agilentfeatureinfo.php?featurenum=34474_531" target="_blank" alt=""><rect x="150" y="10" width="20" height="10" style="fill: rgb(76,0,0 );" />
</a><a xlink:href="./agilentfeatureinfo.php?featurenum=34474_532" target="_blank" alt=""><rect x="170" y="10" width="20" height="10" style="fill: rgb(214,0,0 );" />
</a><rect x="190" y="10" width="5" height="10" style="fill: white;"/>
<a xlink:href="./agilentfeatureinfo.php?featurenum=34474_533" target="_blank" alt=""><rect x="195" y="10" width="20" height="10" style="fill: rgb(253,0,0 );" />
</a><a xlink:href="./agilentfeatureinfo.php?featurenum=34474_534" target="_blank" alt=""><rect x="215" y="10" width="20" height="10" style="fill: rgb(251,0,0 );" />
</a><a xlink:href="./agilentfeatureinfo.php?featurenum=34474_539" target="_blank" alt=""><rect x="235" y="10" width="20" height="10" style="fill: rgb(252,0,0 );" />
</a><a xlink:href="./agilentfeatureinfo.php?featurenum=898_518" target="_blank" alt=""><rect x="0" y="20" width="20" height="10" style="fill: rgb(11,0,0 );" />
</a><a xlink:href="./agilentfeatureinfo.php?featurenum=898_519" target="_blank" alt=""><rect x="20" y="20" width="20" height="10" style="fill: rgb(31,0,0 );" />
</a><a xlink:href="./agilentfeatureinfo.php?featurenum=898_538" target="_blank" alt=""><rect x="40" y="20" width="20" height="10" style="fill: rgb(0,41,0 );" />
</a><rect x="60" y="20" width="5" height="10" style="fill: white;"/>
<a xlink:href="./agilentfeatureinfo.php?featurenum=898_520" target="_blank" alt=""><rect x="65" y="20" width="20" height="10" style="fill: rgb(0,82,0 );" />
</a><a xlink:href="./agilentfeatureinfo.php?featurenum=898_521" target="_blank" alt=""><rect x="85" y="20" width="20" height="10" style="fill: rgb(0,106,0 );" />
</a><a xlink:href="./agilentfeatureinfo.php?featurenum=898_540" target="_blank" alt=""><rect x="105" y="20" width="20" height="10" style="fill: rgb(0,30,0 );" />
</a><rect x="125" y="20" width="5" height="10" style="fill: white;"/>
<a xlink:href="./agilentfeatureinfo.php?featurenum=898_530" target="_blank" alt=""><rect x="130" y="20" width="20" height="10" style="fill: rgb(0,158,0 );" />
</a><a xlink:href="./agilentfeatureinfo.php?featurenum=898_531" target="_blank" alt=""><rect x="150" y="20" width="20" height="10" style="fill: rgb(0,62,0 );" />
</a><a xlink:href="./agilentfeatureinfo.php?featurenum=898_532" target="_blank" alt=""><rect x="170" y="20" width="20" height="10" style="fill: rgb(0,167,0 );" />
</a><rect x="190" y="20" width="5" height="10" style="fill: white;"/>
<a xlink:href="./agilentfeatureinfo.php?featurenum=898_533" target="_blank" alt=""><rect x="195" y="20" width="20" height="10" style="fill: rgb(156,0,0 );" />
</a><a xlink:href="./agilentfeatureinfo.php?featurenum=898_534" target="_blank" alt=""><rect x="215" y="20" width="20" height="10" style="fill: rgb(141,0,0 );" />
</a><a xlink:href="./agilentfeatureinfo.php?featurenum=898_539" target="_blank" alt=""><rect x="235" y="20" width="20" height="10" style="fill: rgb(197,0,0 );" />
</a><a xlink:href="./agilentfeatureinfo.php?featurenum=38709_518" target="_blank" alt=""><rect x="0" y="30" width="20" height="10" style="fill: rgb(13,0,0 );" />
</a><a xlink:href="./agilentfeatureinfo.php?featurenum=38709_519" target="_blank" alt=""><rect x="20" y="30" width="20" height="10" style="fill: rgb(45,0,0 );" />
</a><a xlink:href="./agilentfeatureinfo.php?featurenum=38709_538" target="_blank" alt=""><rect x="40" y="30" width="20" height="10" style="fill: rgb(0,55,0 );" />
</a><rect x="60" y="30" width="5" height="10" style="fill: white;"/>
<a xlink:href="./agilentfeatureinfo.php?featurenum=38709_520" target="_blank" alt=""><rect x="65" y="30" width="20" height="10" style="fill: rgb(0,96,0 );" />
</a><a xlink:href="./agilentfeatureinfo.php?featurenum=38709_521" target="_blank" alt=""><rect x="85" y="30" width="20" height="10" style="fill: rgb(0,120,0 );" />
</a><a xlink:href="./agilentfeatureinfo.php?featurenum=38709_540" target="_blank" alt=""><rect x="105" y="30" width="20" height="10" style="fill: rgb(0,64,0 );" />
</a><rect x="125" y="30" width="5" height="10" style="fill: white;"/>
<a xlink:href="./agilentfeatureinfo.php?featurenum=38709_530" target="_blank" alt=""><rect x="130" y="30" width="20" height="10" style="fill: rgb(0,182,0 );" />
</a><a xlink:href="./agilentfeatureinfo.php?featurenum=38709_531" target="_blank" alt=""><rect x="150" y="30" width="20" height="10" style="fill: rgb(0,120,0 );" />
</a><a xlink:href="./agilentfeatureinfo.php?featurenum=38709_532" target="_blank" alt=""><rect x="170" y="30" width="20" height="10" style="fill: rgb(0,179,0 );" />
</a><rect x="190" y="30" width="5" height="10" style="fill: white;"/>
<a xlink:href="./agilentfeatureinfo.php?featurenum=38709_533" target="_blank" alt=""><rect x="195" y="30" width="20" height="10" style="fill: rgb(205,0,0 );" />
</a><a xlink:href="./agilentfeatureinfo.php?featurenum=38709_534" target="_blank" alt=""><rect x="215" y="30" width="20" height="10" style="fill: rgb(203,0,0 );" />
</a><a xlink:href="./agilentfeatureinfo.php?featurenum=38709_539" target="_blank" alt=""><rect x="235" y="30" width="20" height="10" style="fill: rgb(211,0,0 );" />
</a><a xlink:href="./agilentfeatureinfo.php?featurenum=22160_518" target="_blank" alt=""><rect x="0" y="40" width="20" height="10" style="fill: rgb(0,13,0 );" />
</a><a xlink:href="./agilentfeatureinfo.php?featurenum=22160_519" target="_blank" alt=""><rect x="20" y="40" width="20" height="10" style="fill: rgb(0,0,0 );" />
</a><a xlink:href="./agilentfeatureinfo.php?featurenum=22160_538" target="_blank" alt=""><rect x="40" y="40" width="20" height="10" style="fill: rgb(13,0,0 );" />
</a><rect x="60" y="40" width="5" height="10" style="fill: white;"/>
<a xlink:href="./agilentfeatureinfo.php?featurenum=22160_520" target="_blank" alt=""><rect x="65" y="40" width="20" height="10" style="fill: rgb(96,0,0 );" />
</a><a xlink:href="./agilentfeatureinfo.php?featurenum=22160_521" target="_blank" alt=""><rect x="85" y="40" width="20" height="10" style="fill: rgb(14,0,0 );" />
</a><a xlink:href="./agilentfeatureinfo.php?featurenum=22160_540" target="_blank" alt=""><rect x="105" y="40" width="20" height="10" style="fill: rgb(85,0,0 );" />
</a><rect x="125" y="40" width="5" height="10" style="fill: white;"/>
<a xlink:href="./agilentfeatureinfo.php?featurenum=22160_530" target="_blank" alt=""><rect x="130" y="40" width="20" height="10" style="fill: rgb(0,129,0 );" />
</a><a xlink:href="./agilentfeatureinfo.php?featurenum=22160_531" target="_blank" alt=""><rect x="150" y="40" width="20" height="10" style="fill: rgb(0,114,0 );" />
</a><a xlink:href="./agilentfeatureinfo.php?featurenum=22160_532" target="_blank" alt=""><rect x="170" y="40" width="20" height="10" style="fill: rgb(0,140,0 );" />
</a><rect x="190" y="40" width="5" height="10" style="fill: white;"/>
<a xlink:href="./agilentfeatureinfo.php?featurenum=22160_533" target="_blank" alt=""><rect x="195" y="40" width="20" height="10" style="fill: rgb(50,0,0 );" />
</a><a xlink:href="./agilentfeatureinfo.php?featurenum=22160_534" target="_blank" alt=""><rect x="215" y="40" width="20" height="10" style="fill: rgb(89,0,0 );" />
</a><a xlink:href="./agilentfeatureinfo.php?featurenum=22160_539" target="_blank" alt=""><rect x="235" y="40" width="20" height="10" style="fill: rgb(24,0,0 );" />
</a><a xlink:href="./agilentfeatureinfo.php?featurenum=14449_518" target="_blank" alt=""><rect x="0" y="50" width="20" height="10" style="fill: rgb(0,21,0 );" />
</a><a xlink:href="./agilentfeatureinfo.php?featurenum=14449_519" target="_blank" alt=""><rect x="20" y="50" width="20" height="10" style="fill: rgb(33,0,0 );" />
</a><a xlink:href="./agilentfeatureinfo.php?featurenum=14449_538" target="_blank" alt=""><rect x="40" y="50" width="20" height="10" style="fill: rgb(0,12,0 );" />
</a><rect x="60" y="50" width="5" height="10" style="fill: white;"/>
<a xlink:href="./agilentfeatureinfo.php?featurenum=14449_520" target="_blank" alt=""><rect x="65" y="50" width="20" height="10" style="fill: rgb(62,0,0 );" />
</a><a xlink:href="./agilentfeatureinfo.php?featurenum=14449_521" target="_blank" alt=""><rect x="85" y="50" width="20" height="10" style="fill: rgb(13,0,0 );" />
</a><a xlink:href="./agilentfeatureinfo.php?featurenum=14449_540" target="_blank" alt=""><rect x="105" y="50" width="20" height="10" style="fill: rgb(99,0,0 );" />
</a><rect x="125" y="50" width="5" height="10" style="fill: white;"/>
<a xlink:href="./agilentfeatureinfo.php?featurenum=14449_530" target="_blank" alt=""><rect x="130" y="50" width="20" height="10" style="fill: rgb(0,165,0 );" />
</a><a xlink:href="./agilentfeatureinfo.php?featurenum=14449_531" target="_blank" alt=""><rect x="150" y="50" width="20" height="10" style="fill: rgb(0,104,0 );" />
</a><a xlink:href="./agilentfeatureinfo.php?featurenum=14449_532" target="_blank" alt=""><rect x="170" y="50" width="20" height="10" style="fill: rgb(0,156,0 );" />
</a><rect x="190" y="50" width="5" height="10" style="fill: white;"/>
<a xlink:href="./agilentfeatureinfo.php?featurenum=14449_533" target="_blank" alt=""><rect x="195" y="50" width="20" height="10" style="fill: rgb(24,0,0 );" />
</a><a xlink:href="./agilentfeatureinfo.php?featurenum=14449_534" target="_blank" alt=""><rect x="215" y="50" width="20" height="10" style="fill: rgb(43,0,0 );" />
</a><a xlink:href="./agilentfeatureinfo.php?featurenum=14449_539" target="_blank" alt=""><rect x="235" y="50" width="20" height="10" style="fill: rgb(0,4,0 );" />
</a><a xlink:href="./agilentfeatureinfo.php?featurenum=30009_518" target="_blank" alt=""><rect x="0" y="60" width="20" height="10" style="fill: rgb(0,22,0 );" />
</a><a xlink:href="./agilentfeatureinfo.php?featurenum=30009_519" target="_blank" alt=""><rect x="20" y="60" width="20" height="10" style="fill: rgb(23,0,0 );" />
</a><a xlink:href="./agilentfeatureinfo.php?featurenum=30009_538" target="_blank" alt=""><rect x="40" y="60" width="20" height="10" style="fill: rgb(0,1,0 );" />
</a><rect x="60" y="60" width="5" height="10" style="fill: white;"/>
<a xlink:href="./agilentfeatureinfo.php?featurenum=30009_520" target="_blank" alt=""><rect x="65" y="60" width="20" height="10" style="fill: rgb(100,0,0 );" />
</a><a xlink:href="./agilentfeatureinfo.php?featurenum=30009_521" target="_blank" alt=""><rect x="85" y="60" width="20" height="10" style="fill: rgb(53,0,0 );" />
</a><a xlink:href="./agilentfeatureinfo.php?featurenum=30009_540" target="_blank" alt=""><rect x="105" y="60" width="20" height="10" style="fill: rgb(99,0,0 );" />
</a><rect x="125" y="60" width="5" height="10" style="fill: white;"/>
<a xlink:href="./agilentfeatureinfo.php?featurenum=30009_530" target="_blank" alt=""><rect x="130" y="60" width="20" height="10" style="fill: rgb(0,103,0 );" />
</a><a xlink:href="./agilentfeatureinfo.php?featurenum=30009_531" target="_blank" alt=""><rect x="150" y="60" width="20" height="10" style="fill: rgb(0,38,0 );" />
</a><a xlink:href="./agilentfeatureinfo.php?featurenum=30009_532" target="_blank" alt=""><rect x="170" y="60" width="20" height="10" style="fill: rgb(0,126,0 );" />
</a><rect x="190" y="60" width="5" height="10" style="fill: white;"/>
<a xlink:href="./agilentfeatureinfo.php?featurenum=30009_533" target="_blank" alt=""><rect x="195" y="60" width="20" height="10" style="fill: rgb(92,0,0 );" />
</a><a xlink:href="./agilentfeatureinfo.php?featurenum=30009_534" target="_blank" alt=""><rect x="215" y="60" width="20" height="10" style="fill: rgb(113,0,0 );" />
</a><a xlink:href="./agilentfeatureinfo.php?featurenum=30009_539" target="_blank" alt=""><rect x="235" y="60" width="20" height="10" style="fill: rgb(44,0,0 );" />
</a><a xlink:href="./agilentfeatureinfo.php?featurenum=19844_518" target="_blank" alt=""><rect x="0" y="70" width="20" height="10" style="fill: rgb(6,0,0 );" />
</a><a xlink:href="./agilentfeatureinfo.php?featurenum=19844_519" target="_blank" alt=""><rect x="20" y="70" width="20" height="10" style="fill: rgb(43,0,0 );" />
</a><a xlink:href="./agilentfeatureinfo.php?featurenum=19844_538" target="_blank" alt=""><rect x="40" y="70" width="20" height="10" style="fill: rgb(0,48,0 );" />
</a><rect x="60" y="70" width="5" height="10" style="fill: white;"/>
<a xlink:href="./agilentfeatureinfo.php?featurenum=19844_520" target="_blank" alt=""><rect x="65" y="70" width="20" height="10" style="fill: rgb(0,127,0 );" />
</a><a xlink:href="./agilentfeatureinfo.php?featurenum=19844_521" target="_blank" alt=""><rect x="85" y="70" width="20" height="10" style="fill: rgb(0,152,0 );" />
</a><a xlink:href="./agilentfeatureinfo.php?featurenum=19844_540" target="_blank" alt=""><rect x="105" y="70" width="20" height="10" style="fill: rgb(0,176,0 );" />
</a><rect x="125" y="70" width="5" height="10" style="fill: white;"/>
<a xlink:href="./agilentfeatureinfo.php?featurenum=19844_530" target="_blank" alt=""><rect x="130" y="70" width="20" height="10" style="fill: rgb(172,0,0 );" />
</a><a xlink:href="./agilentfeatureinfo.php?featurenum=19844_531" target="_blank" alt=""><rect x="150" y="70" width="20" height="10" style="fill: rgb(190,0,0 );" />
</a><a xlink:href="./agilentfeatureinfo.php?featurenum=19844_532" target="_blank" alt=""><rect x="170" y="70" width="20" height="10" style="fill: rgb(142,0,0 );" />
</a><rect x="190" y="70" width="5" height="10" style="fill: white;"/>
<a xlink:href="./agilentfeatureinfo.php?featurenum=19844_533" target="_blank" alt=""><rect x="195" y="70" width="20" height="10" style="fill: rgb(0,204,0 );" />
</a><a xlink:href="./agilentfeatureinfo.php?featurenum=19844_534" target="_blank" alt=""><rect x="215" y="70" width="20" height="10" style="fill: rgb(0,162,0 );" />
</a><a xlink:href="./agilentfeatureinfo.php?featurenum=19844_539" target="_blank" alt=""><rect x="235" y="70" width="20" height="10" style="fill: rgb(0,109,0 );" />
</a><a xlink:href="./agilentfeatureinfo.php?featurenum=35102_518" target="_blank" alt=""><rect x="0" y="80" width="20" height="10" style="fill: rgb(0,45,0 );" />
</a><a xlink:href="./agilentfeatureinfo.php?featurenum=35102_519" target="_blank" alt=""><rect x="20" y="80" width="20" height="10" style="fill: rgb(43,0,0 );" />
</a><a xlink:href="./agilentfeatureinfo.php?featurenum=35102_538" target="_blank" alt=""><rect x="40" y="80" width="20" height="10" style="fill: rgb(3,0,0 );" />
</a><rect x="60" y="80" width="5" height="10" style="fill: white;"/>
<a xlink:href="./agilentfeatureinfo.php?featurenum=35102_520" target="_blank" alt=""><rect x="65" y="80" width="20" height="10" style="fill: rgb(0,97,0 );" />
</a><a xlink:href="./agilentfeatureinfo.php?featurenum=35102_521" target="_blank" alt=""><rect x="85" y="80" width="20" height="10" style="fill: rgb(0,106,0 );" />
</a><a xlink:href="./agilentfeatureinfo.php?featurenum=35102_540" target="_blank" alt=""><rect x="105" y="80" width="20" height="10" style="fill: rgb(0,134,0 );" />
</a><rect x="125" y="80" width="5" height="10" style="fill: white;"/>
<a xlink:href="./agilentfeatureinfo.php?featurenum=35102_530" target="_blank" alt=""><rect x="130" y="80" width="20" height="10" style="fill: rgb(173,0,0 );" />
</a><a xlink:href="./agilentfeatureinfo.php?featurenum=35102_531" target="_blank" alt=""><rect x="150" y="80" width="20" height="10" style="fill: rgb(227,0,0 );" />
</a><a xlink:href="./agilentfeatureinfo.php?featurenum=35102_532" target="_blank" alt=""><rect x="170" y="80" width="20" height="10" style="fill: rgb(209,0,0 );" />
</a><rect x="190" y="80" width="5" height="10" style="fill: white;"/>
<a xlink:href="./agilentfeatureinfo.php?featurenum=35102_533" target="_blank" alt=""><rect x="195" y="80" width="20" height="10" style="fill: rgb(0,188,0 );" />
</a><a xlink:href="./agilentfeatureinfo.php?featurenum=35102_534" target="_blank" alt=""><rect x="215" y="80" width="20" height="10" style="fill: rgb(0,89,0 );" />
</a><a xlink:href="./agilentfeatureinfo.php?featurenum=35102_539" target="_blank" alt=""><rect x="235" y="80" width="20" height="10" style="fill: rgb(65,0,0 );" />
</a><a xlink:href="./agilentfeatureinfo.php?featurenum=42319_518" target="_blank" alt=""><rect x="0" y="90" width="20" height="10" style="fill: rgb(0,8,0 );" />
</a><a xlink:href="./agilentfeatureinfo.php?featurenum=42319_519" target="_blank" alt=""><rect x="20" y="90" width="20" height="10" style="fill: rgb(41,0,0 );" />
</a><a xlink:href="./agilentfeatureinfo.php?featurenum=42319_538" target="_blank" alt=""><rect x="40" y="90" width="20" height="10" style="fill: rgb(0,33,0 );" />
</a><rect x="60" y="90" width="5" height="10" style="fill: white;"/>
<a xlink:href="./agilentfeatureinfo.php?featurenum=42319_520" target="_blank" alt=""><rect x="65" y="90" width="20" height="10" style="fill: rgb(0,131,0 );" />
</a><a xlink:href="./agilentfeatureinfo.php?featurenum=42319_521" target="_blank" alt=""><rect x="85" y="90" width="20" height="10" style="fill: rgb(0,132,0 );" />
</a><a xlink:href="./agilentfeatureinfo.php?featurenum=42319_540" target="_blank" alt=""><rect x="105" y="90" width="20" height="10" style="fill: rgb(0,102,0 );" />
</a><rect x="125" y="90" width="5" height="10" style="fill: white;"/>
<a xlink:href="./agilentfeatureinfo.php?featurenum=42319_530" target="_blank" alt=""><rect x="130" y="90" width="20" height="10" style="fill: rgb(106,0,0 );" />
</a><a xlink:href="./agilentfeatureinfo.php?featurenum=42319_531" target="_blank" alt=""><rect x="150" y="90" width="20" height="10" style="fill: rgb(165,0,0 );" />
</a><a xlink:href="./agilentfeatureinfo.php?featurenum=42319_532" target="_blank" alt=""><rect x="170" y="90" width="20" height="10" style="fill: rgb(111,0,0 );" />
</a><rect x="190" y="90" width="5" height="10" style="fill: white;"/>
<a xlink:href="./agilentfeatureinfo.php?featurenum=42319_533" target="_blank" alt=""><rect x="195" y="90" width="20" height="10" style="fill: rgb(0,155,0 );" />
</a><a xlink:href="./agilentfeatureinfo.php?featurenum=42319_534" target="_blank" alt=""><rect x="215" y="90" width="20" height="10" style="fill: rgb(0,129,0 );" />
</a><a xlink:href="./agilentfeatureinfo.php?featurenum=42319_539" target="_blank" alt=""><rect x="235" y="90" width="20" height="10" style="fill: rgb(0,39,0 );" />
</a></g><g id="genes" transform="translate(360,173)"><a xlink:href="./agilentfeatureinfo.php?featurenum=34474" target="_blank" alt=""><text x="0" y = "-5" style="font-family: arial; font-size:6pt;">Cyp1a1</text>
</a><a xlink:href="./agilentfeatureinfo.php?featurenum=898" target="_blank" alt=""><text x="0" y = "5" style="font-family: arial; font-size:6pt;">Cyp1a2</text>
</a><a xlink:href="./agilentfeatureinfo.php?featurenum=38709" target="_blank" alt=""><text x="0" y = "15" style="font-family: arial; font-size:6pt;">Cyp1a2</text>
</a><a xlink:href="./agilentfeatureinfo.php?featurenum=22160" target="_blank" alt=""><text x="0" y = "25" style="font-family: arial; font-size:6pt;">Cyp2c29</text>
</a><a xlink:href="./agilentfeatureinfo.php?featurenum=14449" target="_blank" alt=""><text x="0" y = "35" style="font-family: arial; font-size:6pt;">Cyp2c37</text>
</a><a xlink:href="./agilentfeatureinfo.php?featurenum=30009" target="_blank" alt=""><text x="0" y = "45" style="font-family: arial; font-size:6pt;">Cyp2c37</text>
</a><a xlink:href="./agilentfeatureinfo.php?featurenum=19844" target="_blank" alt=""><text x="0" y = "55" style="font-family: arial; font-size:6pt;">Cyp4a10</text>
</a><a xlink:href="./agilentfeatureinfo.php?featurenum=35102" target="_blank" alt=""><text x="0" y = "65" style="font-family: arial; font-size:6pt;">Cyp4a10</text>
</a><a xlink:href="./agilentfeatureinfo.php?featurenum=42319" target="_blank" alt=""><text x="0" y = "75" style="font-family: arial; font-size:6pt;">Cyp4a10</text>
</a></g><g id="treatments" transform="translate(100,155)" ><a xlink:href="http://edge.oncology.wisc.edu/agilentarrayinfo.php?arrayid=518" target="_blank" alt=""><text x="15" y="0" transform="rotate(270, 15, 0)" style="font-size:8pt; font-weight:bold;">TE A1 Corn Oil 10 ml/kg 48hrs</text></a><a xlink:href="http://edge.oncology.wisc.edu/agilentarrayinfo.php?arrayid=519" target="_blank" alt=""><text x="35" y="0" transform="rotate(270, 35, 0)" style="font-size:8pt; font-weight:bold;">TE A3 Corn Oil 10ml/kg 48hrs</text></a><a xlink:href="http://edge.oncology.wisc.edu/agilentarrayinfo.php?arrayid=538" target="_blank" alt=""><text x="55" y="0" transform="rotate(270, 55, 0)" style="font-size:8pt; font-weight:bold;">TE A2 Corn Oil 10 ml/kg 48hrs</text></a><a xlink:href="http://edge.oncology.wisc.edu/agilentarrayinfo.php?arrayid=520" target="_blank" alt=""><text x="80" y="0" transform="rotate(270, 80, 0)" style="font-size:8pt; font-weight:bold;">TE E1 Aroclor 1260 200mg/kg</text></a><a xlink:href="http://edge.oncology.wisc.edu/agilentarrayinfo.php?arrayid=521" target="_blank" alt=""><text x="100" y="0" transform="rotate(270, 100, 0)" style="font-size:8pt; font-weight:bold;">TE E3 Aroclor 1260 200mg/kg</text></a><a xlink:href="http://edge.oncology.wisc.edu/agilentarrayinfo.php?arrayid=540" target="_blank" alt=""><text x="120" y="0" transform="rotate(270, 120, 0)" style="font-size:8pt; font-weight:bold;">TE E2 Aroclor 1260 200mg/kg 48hrs</text></a><a xlink:href="http://edge.oncology.wisc.edu/agilentarrayinfo.php?arrayid=530" target="_blank" alt=""><text x="145" y="0" transform="rotate(270, 145, 0)" style="font-size:8pt; font-weight:bold;">TE C2 Wy-14643 50mg/kg 48hrs</text></a><a xlink:href="http://edge.oncology.wisc.edu/agilentarrayinfo.php?arrayid=531" target="_blank" alt=""><text x="165" y="0" transform="rotate(270, 165, 0)" style="font-size:8pt; font-weight:bold;">TE C1 Wy-14643 50mg/kg 48hrs</text></a><a xlink:href="http://edge.oncology.wisc.edu/agilentarrayinfo.php?arrayid=532" target="_blank" alt=""><text x="185" y="0" transform="rotate(270, 185, 0)" style="font-size:8pt; font-weight:bold;">TE C3 Wy-14643 50mg/kg 48hrs</text></a><a xlink:href="http://edge.oncology.wisc.edu/agilentarrayinfo.php?arrayid=533" target="_blank" alt=""><text x="210" y="0" transform="rotate(270, 210, 0)" style="font-size:8pt; font-weight:bold;">TE B1 TCDD 10ug/kg 48hrs</text></a><a xlink:href="http://edge.oncology.wisc.edu/agilentarrayinfo.php?arrayid=534" target="_blank" alt=""><text x="230" y="0" transform="rotate(270, 230, 0)" style="font-size:8pt; font-weight:bold;">TE B2 TCDD 10ug/kg 48hrs</text></a><a xlink:href="http://edge.oncology.wisc.edu/agilentarrayinfo.php?arrayid=539" target="_blank" alt=""><text x="250" y="0" transform="rotate(270, 250, 0)" style="font-size:8pt; font-weight:bold;">TE B3 TCDD 10ug/kg 48hrs</text></a></g></g></svg>