<svg xmlns="http://www.w3.org/2000/svg" xmlns:xlink="http://www.w3.org/1999/xlink"  width="840" height="1000" viewBox="0 0 840 1000 " xml:space="preserve"><g id="expChart"><rect x="40" y="300" width="20" height="20" style="fill: rgb(0,255,0); stroke: white"/>
<rect x="60" y="300" width="20" height="20" style="fill: rgb(0,255,0); stroke: white"/>
<rect x="80" y="300" width="20" height="20" style="fill: rgb(0,255,0); stroke: white"/>
<rect x="100" y="300" width="20" height="20" style="fill: rgb(0,74,0); stroke: white"/>
<rect x="120" y="300" width="20" height="20" style="fill: rgb(0,96,0); stroke: white"/>
<rect x="140" y="300" width="20" height="20" style="fill: rgb(127,0,0); stroke: white"/>
<rect x="160" y="300" width="20" height="20" style="fill: rgb(51,0,0); stroke: white"/>
<rect x="180" y="300" width="20" height="20" style="fill: rgb(0,56,0); stroke: white"/>
<rect x="200" y="300" width="20" height="20" style="fill: rgb(0,175,0); stroke: white"/>
<rect x="220" y="300" width="20" height="20" style="fill: rgb(0,241,0); stroke: white"/>
<rect x="240" y="300" width="20" height="20" style="fill: rgb(0,149,0); stroke: white"/>
<rect x="260" y="300" width="20" height="20" style="fill: rgb(0,84,0); stroke: white"/>
<rect x="40" y="320" width="20" height="20" style="fill: rgb(0,255,0); stroke: white"/>
<rect x="60" y="320" width="20" height="20" style="fill: rgb(0,255,0); stroke: white"/>
<rect x="80" y="320" width="20" height="20" style="fill: rgb(0,255,0); stroke: white"/>
<rect x="100" y="320" width="20" height="20" style="fill: rgb(0,107,0); stroke: white"/>
<rect x="120" y="320" width="20" height="20" style="fill: rgb(0,200,0); stroke: white"/>
<rect x="140" y="320" width="20" height="20" style="fill: rgb(0,76,0); stroke: white"/>
<rect x="160" y="320" width="20" height="20" style="fill: rgb(0,255,0); stroke: white"/>
<rect x="180" y="320" width="20" height="20" style="fill: rgb(0,255,0); stroke: white"/>
<rect x="200" y="320" width="20" height="20" style="fill: rgb(0,255,0); stroke: white"/>
<rect x="220" y="320" width="20" height="20" style="fill: rgb(0,255,0); stroke: white"/>
<rect x="240" y="320" width="20" height="20" style="fill: rgb(0,255,0); stroke: white"/>
<rect x="260" y="320" width="20" height="20" style="fill: rgb(0,255,0); stroke: white"/>
<rect x="40" y="340" width="20" height="20" style="fill: rgb(124,0,0); stroke: white"/>
<rect x="60" y="340" width="20" height="20" style="fill: rgb(135,0,0); stroke: white"/>
<rect x="80" y="340" width="20" height="20" style="fill: rgb(99,0,0); stroke: white"/>
<rect x="100" y="340" width="20" height="20" style="fill: rgb(80,0,0); stroke: white"/>
<rect x="120" y="340" width="20" height="20" style="fill: rgb(69,0,0); stroke: white"/>
<rect x="140" y="340" width="20" height="20" style="fill: rgb(104,0,0); stroke: white"/>
<rect x="160" y="340" width="20" height="20" style="fill: rgb(0,57,0); stroke: white"/>
<rect x="180" y="340" width="20" height="20" style="fill: rgb(89,0,0); stroke: white"/>
<rect x="200" y="340" width="20" height="20" style="fill: rgb(0,63,0); stroke: white"/>
<rect x="220" y="340" width="20" height="20" style="fill: rgb(255,0,0); stroke: white"/>
<rect x="240" y="340" width="20" height="20" style="fill: rgb(255,0,0); stroke: white"/>
<rect x="260" y="340" width="20" height="20" style="fill: rgb(255,0,0); stroke: white"/>
<rect x="40" y="360" width="20" height="20" style="fill: rgb(0,255,0); stroke: white"/>
<rect x="60" y="360" width="20" height="20" style="fill: rgb(0,255,0); stroke: white"/>
<rect x="80" y="360" width="20" height="20" style="fill: rgb(0,255,0); stroke: white"/>
<rect x="100" y="360" width="20" height="20" style="fill: rgb(0,255,0); stroke: white"/>
<rect x="120" y="360" width="20" height="20" style="fill: rgb(0,255,0); stroke: white"/>
<rect x="140" y="360" width="20" height="20" style="fill: rgb(0,255,0); stroke: white"/>
<rect x="160" y="360" width="20" height="20" style="fill: rgb(0,255,0); stroke: white"/>
<rect x="180" y="360" width="20" height="20" style="fill: rgb(0,255,0); stroke: white"/>
<rect x="200" y="360" width="20" height="20" style="fill: rgb(0,255,0); stroke: white"/>
<rect x="220" y="360" width="20" height="20" style="fill: rgb(0,234,0); stroke: white"/>
<rect x="240" y="360" width="20" height="20" style="fill: rgb(0,193,0); stroke: white"/>
<rect x="260" y="360" width="20" height="20" style="fill: rgb(0,226,0); stroke: white"/>
<rect x="40" y="380" width="20" height="20" style="fill: rgb(0,255,0); stroke: white"/>
<rect x="60" y="380" width="20" height="20" style="fill: rgb(0,255,0); stroke: white"/>
<rect x="80" y="380" width="20" height="20" style="fill: rgb(0,255,0); stroke: white"/>
<rect x="100" y="380" width="20" height="20" style="fill: rgb(0,224,0); stroke: white"/>
<rect x="120" y="380" width="20" height="20" style="fill: rgb(0,179,0); stroke: white"/>
<rect x="140" y="380" width="20" height="20" style="fill: rgb(0,254,0); stroke: white"/>
<rect x="160" y="380" width="20" height="20" style="fill: rgb(0,152,0); stroke: white"/>
<rect x="180" y="380" width="20" height="20" style="fill: rgb(0,55,0); stroke: white"/>
<rect x="200" y="380" width="20" height="20" style="fill: rgb(0,84,0); stroke: white"/>
<rect x="220" y="380" width="20" height="20" style="fill: rgb(0,255,0); stroke: white"/>
<rect x="240" y="380" width="20" height="20" style="fill: rgb(0,255,0); stroke: white"/>
<rect x="260" y="380" width="20" height="20" style="fill: rgb(0,93,0); stroke: white"/>
<rect x="40" y="400" width="20" height="20" style="fill: rgb(0,255,0); stroke: white"/>
<rect x="60" y="400" width="20" height="20" style="fill: rgb(175,0,0); stroke: white"/>
<rect x="80" y="400" width="20" height="20" style="fill: rgb(0,255,0); stroke: white"/>
<rect x="100" y="400" width="20" height="20" style="fill: rgb(87,0,0); stroke: white"/>
<rect x="120" y="400" width="20" height="20" style="fill: rgb(255,0,0); stroke: white"/>
<rect x="140" y="400" width="20" height="20" style="fill: rgb(70,0,0); stroke: white"/>
<rect x="160" y="400" width="20" height="20" style="fill: rgb(97,0,0); stroke: white"/>
<rect x="180" y="400" width="20" height="20" style="fill: rgb(0,56,0); stroke: white"/>
<rect x="200" y="400" width="20" height="20" style="fill: rgb(83,0,0); stroke: white"/>
<rect x="220" y="400" width="20" height="20" style="fill: rgb(56,0,0); stroke: white"/>
<rect x="240" y="400" width="20" height="20" style="fill: rgb(77,0,0); stroke: white"/>
<rect x="260" y="400" width="20" height="20" style="fill: rgb(60,0,0); stroke: white"/>
<rect x="40" y="420" width="20" height="20" style="fill: rgb(255,0,0); stroke: white"/>
<rect x="60" y="420" width="20" height="20" style="fill: rgb(255,0,0); stroke: white"/>
<rect x="80" y="420" width="20" height="20" style="fill: rgb(255,0,0); stroke: white"/>
<rect x="100" y="420" width="20" height="20" style="fill: rgb(185,0,0); stroke: white"/>
<rect x="120" y="420" width="20" height="20" style="fill: rgb(0,64,0); stroke: white"/>
<rect x="140" y="420" width="20" height="20" style="fill: rgb(0,101,0); stroke: white"/>
<rect x="160" y="420" width="20" height="20" style="fill: rgb(158,0,0); stroke: white"/>
<rect x="180" y="420" width="20" height="20" style="fill: rgb(0,55,0); stroke: white"/>
<rect x="200" y="420" width="20" height="20" style="fill: rgb(114,0,0); stroke: white"/>
<rect x="220" y="420" width="20" height="20" style="fill: rgb(255,0,0); stroke: white"/>
<rect x="240" y="420" width="20" height="20" style="fill: rgb(65,0,0); stroke: white"/>
<rect x="260" y="420" width="20" height="20" style="fill: rgb(53,0,0); stroke: white"/>
<rect x="40" y="440" width="20" height="20" style="fill: rgb(0,72,0); stroke: white"/>
<rect x="60" y="440" width="20" height="20" style="fill: rgb(0,75,0); stroke: white"/>
<rect x="80" y="440" width="20" height="20" style="fill: rgb(0,57,0); stroke: white"/>
<rect x="100" y="440" width="20" height="20" style="fill: rgb(55,0,0); stroke: white"/>
<rect x="120" y="440" width="20" height="20" style="fill: rgb(93,0,0); stroke: white"/>
<rect x="140" y="440" width="20" height="20" style="fill: rgb(144,0,0); stroke: white"/>
<rect x="160" y="440" width="20" height="20" style="fill: rgb(0,82,0); stroke: white"/>
<rect x="180" y="440" width="20" height="20" style="fill: rgb(0,58,0); stroke: white"/>
<rect x="200" y="440" width="20" height="20" style="fill: rgb(0,88,0); stroke: white"/>
<rect x="220" y="440" width="20" height="20" style="fill: rgb(255,0,0); stroke: white"/>
<rect x="240" y="440" width="20" height="20" style="fill: rgb(255,0,0); stroke: white"/>
<rect x="260" y="440" width="20" height="20" style="fill: rgb(255,0,0); stroke: white"/>
<rect x="40" y="460" width="20" height="20" style="fill: rgb(0,255,0); stroke: white"/>
<rect x="60" y="460" width="20" height="20" style="fill: rgb(0,255,0); stroke: white"/>
<rect x="80" y="460" width="20" height="20" style="fill: rgb(0,255,0); stroke: white"/>
<rect x="100" y="460" width="20" height="20" style="fill: rgb(0,255,0); stroke: white"/>
<rect x="120" y="460" width="20" height="20" style="fill: rgb(0,255,0); stroke: white"/>
<rect x="140" y="460" width="20" height="20" style="fill: rgb(0,255,0); stroke: white"/>
<rect x="160" y="460" width="20" height="20" style="fill: rgb(0,217,0); stroke: white"/>
<rect x="180" y="460" width="20" height="20" style="fill: rgb(0,65,0); stroke: white"/>
<rect x="200" y="460" width="20" height="20" style="fill: rgb(0,93,0); stroke: white"/>
<rect x="220" y="460" width="20" height="20" style="fill: rgb(0,255,0); stroke: white"/>
<rect x="240" y="460" width="20" height="20" style="fill: rgb(0,113,0); stroke: white"/>
<rect x="260" y="460" width="20" height="20" style="fill: rgb(0,91,0); stroke: white"/>
<rect x="40" y="480" width="20" height="20" style="fill: rgb(0,255,0); stroke: white"/>
<rect x="60" y="480" width="20" height="20" style="fill: rgb(0,255,0); stroke: white"/>
<rect x="80" y="480" width="20" height="20" style="fill: rgb(0,255,0); stroke: white"/>
<rect x="100" y="480" width="20" height="20" style="fill: rgb(0,121,0); stroke: white"/>
<rect x="120" y="480" width="20" height="20" style="fill: rgb(0,192,0); stroke: white"/>
<rect x="140" y="480" width="20" height="20" style="fill: rgb(0,58,0); stroke: white"/>
<rect x="160" y="480" width="20" height="20" style="fill: rgb(0,255,0); stroke: white"/>
<rect x="180" y="480" width="20" height="20" style="fill: rgb(0,66,0); stroke: white"/>
<rect x="200" y="480" width="20" height="20" style="fill: rgb(0,255,0); stroke: white"/>
<rect x="220" y="480" width="20" height="20" style="fill: rgb(0,255,0); stroke: white"/>
<rect x="240" y="480" width="20" height="20" style="fill: rgb(0,248,0); stroke: white"/>
<rect x="260" y="480" width="20" height="20" style="fill: rgb(0,87,0); stroke: white"/>
<rect x="40" y="500" width="20" height="20" style="fill: rgb(255,0,0); stroke: white"/>
<rect x="60" y="500" width="20" height="20" style="fill: rgb(255,0,0); stroke: white"/>
<rect x="80" y="500" width="20" height="20" style="fill: rgb(255,0,0); stroke: white"/>
<rect x="100" y="500" width="20" height="20" style="fill: rgb(255,0,0); stroke: white"/>
<rect x="120" y="500" width="20" height="20" style="fill: rgb(255,0,0); stroke: white"/>
<rect x="140" y="500" width="20" height="20" style="fill: rgb(255,0,0); stroke: white"/>
<rect x="160" y="500" width="20" height="20" style="fill: rgb(206,0,0); stroke: white"/>
<rect x="180" y="500" width="20" height="20" style="fill: rgb(53,0,0); stroke: white"/>
<rect x="200" y="500" width="20" height="20" style="fill: rgb(255,0,0); stroke: white"/>
<rect x="220" y="500" width="20" height="20" style="fill: rgb(124,0,0); stroke: white"/>
<rect x="240" y="500" width="20" height="20" style="fill: rgb(155,0,0); stroke: white"/>
<rect x="260" y="500" width="20" height="20" style="fill: rgb(188,0,0); stroke: white"/>
<rect x="40" y="520" width="20" height="20" style="fill: rgb(0,58,0); stroke: white"/>
<rect x="60" y="520" width="20" height="20" style="fill: rgb(70,0,0); stroke: white"/>
<rect x="80" y="520" width="20" height="20" style="fill: rgb(108,0,0); stroke: white"/>
<rect x="100" y="520" width="20" height="20" style="fill: rgb(219,0,0); stroke: white"/>
<rect x="120" y="520" width="20" height="20" style="fill: rgb(116,0,0); stroke: white"/>
<rect x="140" y="520" width="20" height="20" style="fill: rgb(109,0,0); stroke: white"/>
<rect x="160" y="520" width="20" height="20" style="fill: rgb(255,0,0); stroke: white"/>
<rect x="180" y="520" width="20" height="20" style="fill: rgb(255,0,0); stroke: white"/>
<rect x="200" y="520" width="20" height="20" style="fill: rgb(255,0,0); stroke: white"/>
<rect x="220" y="520" width="20" height="20" style="fill: rgb(0,103,0); stroke: white"/>
<rect x="240" y="520" width="20" height="20" style="fill: rgb(86,0,0); stroke: white"/>
<rect x="260" y="520" width="20" height="20" style="fill: rgb(83,0,0); stroke: white"/>
<rect x="40" y="540" width="20" height="20" style="fill: rgb(57,0,0); stroke: white"/>
<rect x="60" y="540" width="20" height="20" style="fill: rgb(60,0,0); stroke: white"/>
<rect x="80" y="540" width="20" height="20" style="fill: rgb(0,255,0); stroke: white"/>
<rect x="100" y="540" width="20" height="20" style="fill: rgb(98,0,0); stroke: white"/>
<rect x="120" y="540" width="20" height="20" style="fill: rgb(111,0,0); stroke: white"/>
<rect x="140" y="540" width="20" height="20" style="fill: rgb(110,0,0); stroke: white"/>
<rect x="160" y="540" width="20" height="20" style="fill: rgb(93,0,0); stroke: white"/>
<rect x="180" y="540" width="20" height="20" style="fill: rgb(0,52,0); stroke: white"/>
<rect x="200" y="540" width="20" height="20" style="fill: rgb(79,0,0); stroke: white"/>
<rect x="220" y="540" width="20" height="20" style="fill: rgb(255,0,0); stroke: white"/>
<rect x="240" y="540" width="20" height="20" style="fill: rgb(255,0,0); stroke: white"/>
<rect x="260" y="540" width="20" height="20" style="fill: rgb(214,0,0); stroke: white"/>
<rect x="40" y="560" width="20" height="20" style="fill: rgb(0,255,0); stroke: white"/>
<rect x="60" y="560" width="20" height="20" style="fill: rgb(0,255,0); stroke: white"/>
<rect x="80" y="560" width="20" height="20" style="fill: rgb(0,213,0); stroke: white"/>
<rect x="100" y="560" width="20" height="20" style="fill: rgb(0,98,0); stroke: white"/>
<rect x="120" y="560" width="20" height="20" style="fill: rgb(0,131,0); stroke: white"/>
<rect x="140" y="560" width="20" height="20" style="fill: rgb(0,54,0); stroke: white"/>
<rect x="160" y="560" width="20" height="20" style="fill: rgb(255,0,0); stroke: white"/>
<rect x="180" y="560" width="20" height="20" style="fill: rgb(0,55,0); stroke: white"/>
<rect x="200" y="560" width="20" height="20" style="fill: rgb(246,0,0); stroke: white"/>
<rect x="220" y="560" width="20" height="20" style="fill: rgb(0,241,0); stroke: white"/>
<rect x="240" y="560" width="20" height="20" style="fill: rgb(0,63,0); stroke: white"/>
<rect x="260" y="560" width="20" height="20" style="fill: rgb(0,61,0); stroke: white"/>
<rect x="40" y="580" width="20" height="20" style="fill: rgb(0,68,0); stroke: white"/>
<rect x="60" y="580" width="20" height="20" style="fill: rgb(56,0,0); stroke: white"/>
<rect x="80" y="580" width="20" height="20" style="fill: rgb(54,0,0); stroke: white"/>
<rect x="100" y="580" width="20" height="20" style="fill: rgb(104,0,0); stroke: white"/>
<rect x="120" y="580" width="20" height="20" style="fill: rgb(74,0,0); stroke: white"/>
<rect x="140" y="580" width="20" height="20" style="fill: rgb(126,0,0); stroke: white"/>
<rect x="160" y="580" width="20" height="20" style="fill: rgb(147,0,0); stroke: white"/>
<rect x="180" y="580" width="20" height="20" style="fill: rgb(69,0,0); stroke: white"/>
<rect x="200" y="580" width="20" height="20" style="fill: rgb(255,0,0); stroke: white"/>
<rect x="220" y="580" width="20" height="20" style="fill: rgb(255,0,0); stroke: white"/>
<rect x="240" y="580" width="20" height="20" style="fill: rgb(255,0,0); stroke: white"/>
<rect x="260" y="580" width="20" height="20" style="fill: rgb(255,0,0); stroke: white"/>
<rect x="40" y="600" width="20" height="20" style="fill: rgb(0,255,0); stroke: white"/>
<rect x="60" y="600" width="20" height="20" style="fill: rgb(0,255,0); stroke: white"/>
<rect x="80" y="600" width="20" height="20" style="fill: rgb(0,255,0); stroke: white"/>
<rect x="100" y="600" width="20" height="20" style="fill: rgb(0,255,0); stroke: white"/>
<rect x="120" y="600" width="20" height="20" style="fill: rgb(0,255,0); stroke: white"/>
<rect x="140" y="600" width="20" height="20" style="fill: rgb(0,255,0); stroke: white"/>
<rect x="160" y="600" width="20" height="20" style="fill: rgb(0,255,0); stroke: white"/>
<rect x="180" y="600" width="20" height="20" style="fill: rgb(0,72,0); stroke: white"/>
<rect x="200" y="600" width="20" height="20" style="fill: rgb(0,79,0); stroke: white"/>
<rect x="220" y="600" width="20" height="20" style="fill: rgb(0,252,0); stroke: white"/>
<rect x="240" y="600" width="20" height="20" style="fill: rgb(0,235,0); stroke: white"/>
<rect x="260" y="600" width="20" height="20" style="fill: rgb(0,58,0); stroke: white"/>
<rect x="40" y="620" width="20" height="20" style="fill: rgb(0,119,0); stroke: white"/>
<rect x="60" y="620" width="20" height="20" style="fill: rgb(0,108,0); stroke: white"/>
<rect x="80" y="620" width="20" height="20" style="fill: rgb(0,88,0); stroke: white"/>
<rect x="100" y="620" width="20" height="20" style="fill: rgb(64,0,0); stroke: white"/>
<rect x="120" y="620" width="20" height="20" style="fill: rgb(0,122,0); stroke: white"/>
<rect x="140" y="620" width="20" height="20" style="fill: rgb(0,142,0); stroke: white"/>
<rect x="160" y="620" width="20" height="20" style="fill: rgb(0,60,0); stroke: white"/>
<rect x="180" y="620" width="20" height="20" style="fill: rgb(0,80,0); stroke: white"/>
<rect x="200" y="620" width="20" height="20" style="fill: rgb(0,170,0); stroke: white"/>
<rect x="220" y="620" width="20" height="20" style="fill: rgb(0,255,0); stroke: white"/>
<rect x="240" y="620" width="20" height="20" style="fill: rgb(0,255,0); stroke: white"/>
<rect x="260" y="620" width="20" height="20" style="fill: rgb(0,255,0); stroke: white"/>
<rect x="40" y="640" width="20" height="20" style="fill: rgb(143,0,0); stroke: white"/>
<rect x="60" y="640" width="20" height="20" style="fill: rgb(165,0,0); stroke: white"/>
<rect x="80" y="640" width="20" height="20" style="fill: rgb(106,0,0); stroke: white"/>
<rect x="100" y="640" width="20" height="20" style="fill: rgb(84,0,0); stroke: white"/>
<rect x="120" y="640" width="20" height="20" style="fill: rgb(71,0,0); stroke: white"/>
<rect x="140" y="640" width="20" height="20" style="fill: rgb(101,0,0); stroke: white"/>
<rect x="160" y="640" width="20" height="20" style="fill: rgb(0,67,0); stroke: white"/>
<rect x="180" y="640" width="20" height="20" style="fill: rgb(71,0,0); stroke: white"/>
<rect x="200" y="640" width="20" height="20" style="fill: rgb(0,64,0); stroke: white"/>
<rect x="220" y="640" width="20" height="20" style="fill: rgb(255,0,0); stroke: white"/>
<rect x="240" y="640" width="20" height="20" style="fill: rgb(255,0,0); stroke: white"/>
<rect x="260" y="640" width="20" height="20" style="fill: rgb(255,0,0); stroke: white"/>
<rect x="40" y="660" width="20" height="20" style="fill: rgb(55,0,0); stroke: white"/>
<rect x="60" y="660" width="20" height="20" style="fill: rgb(70,0,0); stroke: white"/>
<rect x="80" y="660" width="20" height="20" style="fill: rgb(70,0,0); stroke: white"/>
<rect x="100" y="660" width="20" height="20" style="fill: rgb(71,0,0); stroke: white"/>
<rect x="120" y="660" width="20" height="20" style="fill: rgb(80,0,0); stroke: white"/>
<rect x="140" y="660" width="20" height="20" style="fill: rgb(71,0,0); stroke: white"/>
<rect x="160" y="660" width="20" height="20" style="fill: rgb(73,0,0); stroke: white"/>
<rect x="180" y="660" width="20" height="20" style="fill: rgb(128,0,0); stroke: white"/>
<rect x="200" y="660" width="20" height="20" style="fill: rgb(79,0,0); stroke: white"/>
<rect x="220" y="660" width="20" height="20" style="fill: rgb(255,0,0); stroke: white"/>
<rect x="240" y="660" width="20" height="20" style="fill: rgb(255,0,0); stroke: white"/>
<rect x="260" y="660" width="20" height="20" style="fill: rgb(255,0,0); stroke: white"/>
<rect x="40" y="680" width="20" height="20" style="fill: rgb(0,76,0); stroke: white"/>
<rect x="60" y="680" width="20" height="20" style="fill: rgb(0,63,0); stroke: white"/>
<rect x="80" y="680" width="20" height="20" style="fill: rgb(64,0,0); stroke: white"/>
<rect x="100" y="680" width="20" height="20" style="fill: rgb(61,0,0); stroke: white"/>
<rect x="120" y="680" width="20" height="20" style="fill: rgb(84,0,0); stroke: white"/>
<rect x="140" y="680" width="20" height="20" style="fill: rgb(91,0,0); stroke: white"/>
<rect x="160" y="680" width="20" height="20" style="fill: rgb(0,56,0); stroke: white"/>
<rect x="180" y="680" width="20" height="20" style="fill: rgb(0,53,0); stroke: white"/>
<rect x="200" y="680" width="20" height="20" style="fill: rgb(73,0,0); stroke: white"/>
<rect x="220" y="680" width="20" height="20" style="fill: rgb(255,0,0); stroke: white"/>
<rect x="240" y="680" width="20" height="20" style="fill: rgb(255,0,0); stroke: white"/>
<rect x="260" y="680" width="20" height="20" style="fill: rgb(255,0,0); stroke: white"/>
<text x="300" y="315" style="stroke: black; font-family: arial; font-size: 14pt;">7827 6030422H21Rik</text>
<text x="300" y="335" style="stroke: black; font-family: arial; font-size: 14pt;">21336 Cyp2b9</text>
<text x="300" y="355" style="stroke: black; font-family: arial; font-size: 14pt;">898 Cyp1a2</text>
<text x="300" y="375" style="stroke: black; font-family: arial; font-size: 14pt;">15531 Fmo3</text>
<text x="300" y="395" style="stroke: black; font-family: arial; font-size: 14pt;">10714 EG638251</text>
<text x="300" y="415" style="stroke: black; font-family: arial; font-size: 14pt;">7451 Zfp59</text>
<text x="300" y="435" style="stroke: black; font-family: arial; font-size: 14pt;">18570 Tes</text>
<text x="300" y="455" style="stroke: black; font-family: arial; font-size: 14pt;">20445 Olfr114</text>
<text x="300" y="475" style="stroke: black; font-family: arial; font-size: 14pt;">22175 Cfd</text>
<text x="300" y="495" style="stroke: black; font-family: arial; font-size: 14pt;">220 Cyp2b9</text>
<text x="300" y="515" style="stroke: black; font-family: arial; font-size: 14pt;">8618 Cpeb2</text>
<text x="300" y="535" style="stroke: black; font-family: arial; font-size: 14pt;">26340 Krt23</text>
<text x="300" y="555" style="stroke: black; font-family: arial; font-size: 14pt;">30511 4930405H06Rik</text>
<text x="300" y="575" style="stroke: black; font-family: arial; font-size: 14pt;">33461 3100002J23Rik</text>
<text x="300" y="595" style="stroke: black; font-family: arial; font-size: 14pt;">34474 Cyp1a1</text>
<text x="300" y="615" style="stroke: black; font-family: arial; font-size: 14pt;">34984 A_51_P281078</text>
<text x="300" y="635" style="stroke: black; font-family: arial; font-size: 14pt;">35985 Hamp2</text>
<text x="300" y="655" style="stroke: black; font-family: arial; font-size: 14pt;">38709 Cyp1a2</text>
<text x="300" y="675" style="stroke: black; font-family: arial; font-size: 14pt;">44840 Slc46a3</text>
<text x="300" y="695" style="stroke: black; font-family: arial; font-size: 14pt;">45116 Chad</text>
<text x="55" y="290" style="stroke: black; font-family: arial; font-size: 14pt;" transform="rotate(270,55,290)">corn_oil</text>
<text x="75" y="290" style="stroke: black; font-family: arial; font-size: 14pt;" transform="rotate(270,75,290)">corn_oil</text>
<text x="95" y="290" style="stroke: black; font-family: arial; font-size: 14pt;" transform="rotate(270,95,290)">corn_oil</text>
<text x="115" y="290" style="stroke: black; font-family: arial; font-size: 14pt;" transform="rotate(270,115,290)">aroclor</text>
<text x="135" y="290" style="stroke: black; font-family: arial; font-size: 14pt;" transform="rotate(270,135,290)">aroclor</text>
<text x="155" y="290" style="stroke: black; font-family: arial; font-size: 14pt;" transform="rotate(270,155,290)">aroclor</text>
<text x="175" y="290" style="stroke: black; font-family: arial; font-size: 14pt;" transform="rotate(270,175,290)">wy-14643</text>
<text x="195" y="290" style="stroke: black; font-family: arial; font-size: 14pt;" transform="rotate(270,195,290)">wy-14643</text>
<text x="215" y="290" style="stroke: black; font-family: arial; font-size: 14pt;" transform="rotate(270,215,290)">wy-14643</text>
<text x="235" y="290" style="stroke: black; font-family: arial; font-size: 14pt;" transform="rotate(270,235,290)">tcdd</text>
<text x="255" y="290" style="stroke: black; font-family: arial; font-size: 14pt;" transform="rotate(270,255,290)">tcdd</text>
<text x="275" y="290" style="stroke: black; font-family: arial; font-size: 14pt;" transform="rotate(270,275,290)">tcdd</text>
<text x="42" y="703" style="stroke: black; font-family: arial; font-size: 14pt;" transform="rotate(90,42,703)">TE A1 Corn Oil 10 ml/kg 48hrs</text>
<text x="62" y="703" style="stroke: black; font-family: arial; font-size: 14pt;" transform="rotate(90,62,703)">TE A3 Corn Oil 10ml/kg 48hrs</text>
<text x="82" y="703" style="stroke: black; font-family: arial; font-size: 14pt;" transform="rotate(90,82,703)">TE A2 Corn Oil 10 ml/kg 48hrs</text>
<text x="102" y="703" style="stroke: black; font-family: arial; font-size: 14pt;" transform="rotate(90,102,703)">TE E1 Aroclor 1260 200mg/kg</text>
<text x="122" y="703" style="stroke: black; font-family: arial; font-size: 14pt;" transform="rotate(90,122,703)">TE E3 Aroclor 1260 200mg/kg</text>
<text x="142" y="703" style="stroke: black; font-family: arial; font-size: 14pt;" transform="rotate(90,142,703)">TE E2 Aroclor 1260 200mg/kg 48hrs</text>
<text x="162" y="703" style="stroke: black; font-family: arial; font-size: 14pt;" transform="rotate(90,162,703)">TE C2 Wy-14643 50mg/kg 48hrs</text>
<text x="182" y="703" style="stroke: black; font-family: arial; font-size: 14pt;" transform="rotate(90,182,703)">TE C1 Wy-14643 50mg/kg 48hrs</text>
<text x="202" y="703" style="stroke: black; font-family: arial; font-size: 14pt;" transform="rotate(90,202,703)">TE C3 Wy-14643 50mg/kg 48hrs</text>
<text x="222" y="703" style="stroke: black; font-family: arial; font-size: 14pt;" transform="rotate(90,222,703)">TE B1 TCDD 10ug/kg 48hrs</text>
<text x="242" y="703" style="stroke: black; font-family: arial; font-size: 14pt;" transform="rotate(90,242,703)">TE B2 TCDD 10ug/kg 48hrs</text>
<text x="262" y="703" style="stroke: black; font-family: arial; font-size: 14pt;" transform="rotate(90,262,703)">TE B3 TCDD 10ug/kg 48hrs</text>
<rect x="260" y="20" width="20" height="10" style="fill: rgb(255,0,0);"/><text x="300" y="30" style="stroke: black; font-family: arial; font-weight:bold; font-size: 14pt;">+5</text>
<rect x="260" y="30" width="20" height="10" style="fill: rgb(255,0,0);"/><rect x="260" y="40" width="20" height="10" style="fill: rgb(240,0,0);"/><rect x="260" y="50" width="20" height="10" style="fill: rgb(200,0,0);"/><text x="300" y="60" style="stroke: black; font-family: arial; font-weight:bold; font-size: 14pt;">2.5</text>
<rect x="260" y="60" width="20" height="10" style="fill: rgb(160,0,0);"/><rect x="260" y="70" width="20" height="10" style="fill: rgb(120,0,0);"/><rect x="260" y="80" width="20" height="10" style="fill: rgb(0,0,0);"/><text x="300" y="90" style="stroke: black; font-family: arial; font-weight:bold; font-size: 14pt;">1.0</text>
<text x="360" y="90" style="stroke: black; font-family: arial; font-size: 14pt;">Ratio Key</text>
<rect x="260" y="90" width="20" height="10" style="fill: rgb(0,119,0);"/><rect x="260" y="100" width="20" height="10" style="fill: rgb(0,160,0);"/><rect x="260" y="110" width="20" height="10" style="fill: rgb(0,200,0);"/><text x="300" y="120" style="stroke: black; font-family: arial; font-weight:bold; font-size: 14pt;">-2.5</text>
<rect x="260" y="120" width="20" height="10" style="fill: rgb(0,242,0);"/><rect x="260" y="130" width="20" height="10" style="fill: rgb(0,255,0);"/><rect x="260" y="140" width="20" height="10" style="fill: rgb(0,255,0);"/><text x="300" y="150" style="stroke: black; font-family: arial; font-weight:bold; font-size: 14pt;">-5</text>
<text x="0" y="100" style="stroke: black; font-family: arial; font-weight:bold; font-size: 12pt;"> 12 Treatments</text>
</g></svg>
